<svg width="1101" height="181" viewBox="0 0 1101 181" fill="none" xmlns="http://www.w3.org/2000/svg">
<mask id="mask0_104_1666" style="mask-type:alpha" maskUnits="userSpaceOnUse" x="0" y="0" width="1101" height="181">
<rect width="1101" height="181" rx="23" fill="white"/>
</mask>
<g mask="url(#mask0_104_1666)">
<g opacity="0.45">
<g opacity="0.9">
<path d="M753.078 117.166C727.199 117.166 702.38 106.886 684.081 88.5864C665.781 70.2871 655.501 45.468 655.501 19.5888C655.501 -6.29029 665.781 -31.1095 684.081 -49.4088C702.38 -67.7081 727.199 -77.9885 753.078 -77.9885L753.078 19.5888L753.078 117.166Z" fill="#D0E4F0"/>
<path d="M551.9 117.166C577.779 117.166 602.598 106.886 620.897 88.5864C639.197 70.2871 649.477 45.468 649.477 19.5888C649.477 -6.29029 639.197 -31.1095 620.897 -49.4088C602.598 -67.7081 577.779 -77.9885 551.9 -77.9885L551.9 19.5888L551.9 117.166Z" fill="#D0E4F0"/>
</g>
<path opacity="0.8" d="M210.381 -80.999H413.631L210.381 118.973V-80.999Z" fill="#EBF7FF"/>
<path opacity="0.9" fill-rule="evenodd" clip-rule="evenodd" d="M793.508 95.9086V109.93L984.139 -80.7007H970.117L793.508 95.9086ZM991 -59.8178V-73.8392L800.369 116.792H814.391L991 -59.8178ZM991 -46.0948V-32.0735L842.135 116.792H828.114L991 -46.0948ZM991 -4.03076V-18.0521L856.156 116.792H870.178L991 -4.03076ZM991 9.99059V24.0119L898.22 116.792H884.199L991 9.99059ZM991 51.7563V37.735L912.242 116.493H926.263L991 51.7563ZM991 65.7777V79.799L954.008 116.792H939.986L991 65.7777ZM991 107.842V93.8204L968.029 116.792H982.05L991 107.842ZM793.508 81.8873V67.866L942.373 -80.999H956.394L793.508 81.8873ZM793.508 39.8232V53.8446L928.351 -80.999H914.33L793.508 39.8232ZM793.508 25.8019V11.7805L886.287 -80.999H900.309L793.508 25.8019ZM793.508 -15.9638V-1.94247L872.266 -80.7007H858.245L793.508 -15.9638ZM793.508 -29.9852V-44.0065L830.5 -80.999H844.522L793.508 -29.9852ZM793.508 -72.0492V-58.0279L816.479 -80.999H802.458L793.508 -72.0492Z" fill="#D0E4F0"/>
<path opacity="0.7" d="M-12 118.973H185.564V-78.5911H-12V118.973Z" fill="#D0E4F0"/>
<path opacity="0.8" d="M45.0942 20.6548C45.0942 43.3971 63.5304 61.8333 86.2727 61.8333C109.015 61.8333 127.451 43.3971 127.451 20.6548C127.451 -2.08743 109.015 -20.5237 86.2727 -20.5237C63.5304 -20.5237 45.0942 -2.08743 45.0942 20.6548Z" fill="#C3DAE9"/>
<g opacity="0.9">
<path d="M316.391 120.179C316.391 94.2995 326.671 69.4804 344.97 51.1811C363.27 32.8817 388.089 22.6013 413.968 22.6013C439.847 22.6013 464.666 32.8818 482.966 51.1811C501.265 69.4804 511.545 94.2995 511.545 120.179L413.968 120.179L316.391 120.179Z" fill="#D0E4F0"/>
<path d="M316.391 -81C316.391 -55.1209 326.671 -30.3017 344.97 -12.0024C363.27 6.29694 388.089 16.5774 413.968 16.5774C439.847 16.5774 464.666 6.29695 482.966 -12.0023C501.265 -30.3016 511.545 -55.1208 511.545 -80.9999L413.968 -81L316.391 -81Z" fill="#D0E4F0"/>
</g>
</g>
</g>
</svg>
