<svg xmlns="http://www.w3.org/2000/svg" width="744" height="673" viewBox="0 0 744 673" fill="none">
    <g style="mix-blend-mode:color-dodge">
        <path
            d="M689.253 82.4339C686.521 83.0084 672.143 48.6848 662.365 24.127L629.294 28.7226L603.556 50.4082H558.55L522.172 28.7226H447.114L381.834 72.8118H337.835L292.829 28.7226H271.405L226.399 50.4082H207.132L168.596 8.61678H140.701L93.5389 0L-2.94296 17.09V72.8118L-35.1515 82.8647L-18.0407 171.33H-45.9356V195.17L-26.5242 208.813L-20.4851 235.525L-33.1385 252.328V275.163L-20.4851 283.492L-33.1385 304.172H-59.4517V333.47L-66.9287 345.533H-89.6472L-100 450.227V458.844L-92.6668 484.12L-90.51 551.331L-26.8118 547.597L43.2131 560.378L93.2513 630.318L101.879 675.987L141.852 707.438H167.59L190.452 690.348L210.439 686.04C210.439 686.04 279.026 690.348 283.339 690.348C287.653 690.348 311.953 683.167 311.953 683.167L315.117 684.029C326.907 661.338 339.704 636.206 342.005 631.754C346.319 623.137 337.691 614.664 333.378 599.585C329.064 584.649 363.429 552.479 363.429 552.479L429.86 514.278H462.068L474.865 531.081L498.446 552.479H509.231L549.204 503.22L558.55 483.976V458.269L600.536 426.1L601.543 415.329C601.543 415.329 599.386 398.239 601.543 396.228C603.699 394.218 612.327 387.468 625.124 383.16C637.921 378.851 625.124 353.145 625.124 345.246C625.124 337.347 653.019 317.528 653.019 317.528L685.227 203.356L710.965 190.575L743.174 171.33V118.768L717.436 109.29C717.436 109.29 693.855 81.4286 689.541 82.2903L689.253 82.4339Z"
            fill="#3C6982" fill-opacity="0.28" />
    </g>
</svg>